<?xml version="1.0" standalone="no"?>
<!DOCTYPE svg PUBLIC "-//W3C//DTD SVG 20010904//EN"
 "http://www.w3.org/TR/2001/REC-SVG-20010904/DTD/svg10.dtd">
<svg version="1.0" xmlns="http://www.w3.org/2000/svg"
 width="500.000000pt" height="500.000000pt" viewBox="0 0 500.000000 500.000000"
 preserveAspectRatio="xMidYMid meet">

<g transform="translate(0.000000,500.000000) scale(0.100000,-0.100000)"
fill="#000000" stroke="none">
<path d="M2185 4035 c-547 -116 -978 -476 -1189 -995 -31 -75 -67 -207 -92
-335 -29 -145 -24 -385 10 -549 27 -128 72 -268 107 -337 13 -27 26 -38 50
-43 17 -3 667 -6 1443 -6 1241 0 1414 2 1433 15 32 22 97 201 128 351 32 153
44 373 26 502 -51 385 -240 746 -522 1003 -176 159 -371 274 -596 349 -173 58
-262 70 -492 69 -166 0 -213 -4 -306 -24z m-231 -321 c21 -8 21 -43 0 -51 -8
-3 -23 1 -31 10 -13 13 -14 19 -3 31 14 18 13 18 34 10z m571 -79 c0 -22 -31
-33 -48 -16 -7 7 -6 15 3 26 17 21 45 15 45 -10z m623 -69 c-4 -27 -43 -34
-52 -9 -5 11 -1 22 9 30 23 16 47 5 43 -21z m-391 -127 c16 -16 5 -39 -17 -39
-23 0 -34 16 -26 35 6 18 28 19 43 4z m-522 -29 c0 -16 -6 -26 -18 -28 -19 -4
-32 20 -23 44 9 25 41 13 41 -16z m-508 0 c46 -27 83 -88 89 -146 5 -41 1 -58
-23 -104 -27 -53 -58 -79 -111 -95 -22 -6 -23 -5 -12 15 10 18 7 26 -19 56
-39 44 -41 93 -6 149 28 47 31 75 10 115 -15 30 -15 30 12 30 16 0 42 -9 60
-20z m1769 -64 c5 -28 11 -35 32 -38 16 -2 28 -10 30 -20 3 -14 -3 -18 -27
-18 -25 0 -30 -4 -33 -27 -2 -20 -9 -28 -23 -28 -14 0 -21 8 -23 28 -3 23 -8
27 -33 27 -22 0 -29 5 -29 20 0 16 7 20 30 20 26 0 30 4 30 28 0 54 36 59 46
8z m-418 -209 c3 -34 6 -36 40 -39 51 -4 51 -32 0 -36 -33 -3 -37 -6 -40 -35
-2 -21 -9 -33 -20 -35 -15 -3 -18 4 -18 32 0 34 -2 36 -35 36 -28 0 -35 4 -35
20 0 16 7 20 35 20 33 0 35 2 35 33 0 60 33 64 38 4z m-489 -6 c62 -32 134
-108 170 -180 106 -208 330 -745 318 -757 -3 -3 -81 18 -173 46 -93 28 -195
53 -226 57 l-56 6 -29 56 c-66 131 -286 556 -289 560 -2 2 -7 -5 -10 -15 -9
-23 -404 -912 -430 -966 -18 -38 -18 -38 -81 -38 -44 0 -63 4 -63 13 0 13 72
193 243 607 54 130 121 279 181 398 62 124 121 187 209 222 69 27 173 23 236
-9z m-1217 -276 c2 -23 8 -30 23 -28 10 1 28 -3 38 -8 26 -14 4 -39 -34 -39
-26 0 -29 -3 -29 -35 0 -53 -28 -45 -32 9 -2 22 -7 26 -35 26 -21 0 -36 6 -40
15 -7 21 -1 26 36 27 17 1 31 4 32 7 10 76 34 91 41 26z m475 -6 c17 -17 4
-39 -23 -39 -17 0 -24 6 -24 18 0 32 25 43 47 21z m1727 -5 c8 -21 -1 -34 -24
-34 -22 0 -34 15 -26 35 7 20 42 19 50 -1z m-233 -164 c89 -25 164 -130 306
-428 56 -119 143 -323 143 -337 0 -3 -58 -5 -130 -5 l-130 0 -155 318 -156
317 -40 -85 c-23 -47 -45 -96 -50 -109 -13 -32 -21 -22 -63 82 -41 99 -39 111
26 176 68 68 163 95 249 71z m-1651 -151 c50 -11 98 -44 130 -89 l21 -29 -31
-73 c-16 -40 -30 -79 -30 -86 0 -27 -18 -1 -38 55 -41 111 -41 111 -106 -39
-32 -73 -82 -185 -110 -248 l-51 -115 -135 0 c-129 0 -135 1 -132 20 10 68
138 349 207 456 50 77 96 117 162 141 57 20 56 20 113 7z m1065 -335 c80 -17
295 -85 373 -120 28 -12 77 -47 108 -76 103 -97 152 -88 -486 -88 -496 0 -560
2 -560 15 0 28 51 116 93 162 112 122 248 152 472 107z"/>
<path d="M1121 1651 c-11 -7 -8 -18 16 -57 l30 -49 89 -8 c49 -4 643 -6 1320
-5 1014 3 1234 5 1247 16 21 18 67 99 59 106 -9 10 -2746 6 -2761 -3z"/>
<path d="M1280 1412 c0 -5 22 -32 48 -60 l49 -52 1119 0 1120 0 40 43 c22 23
46 50 53 60 13 16 -46 17 -1208 17 -671 0 -1221 -4 -1221 -8z"/>
<path d="M1547 1162 c17 -15 57 -43 89 -62 l58 -35 807 2 807 1 75 51 c42 28
78 55 82 61 4 7 -312 10 -972 10 l-978 -1 32 -27z"/>
<path d="M2040 920 c303 -93 638 -90 945 9 l60 19 -550 0 -550 1 95 -29z"/>
</g>
</svg>
